<svg width="256" height="256" xmlns="http://www.w3.org/2000/svg">

 <g>
  <title>background</title>
  <rect fill="none" id="canvas_background" height="402" width="582" y="-1" x="-1"/>
 </g>
 <g>
  <title>Layer 1</title>
  <path id="svg_2" d="m114.39,42.67q-21.87,-8.11 -17.97,-31.68q0.08,-0.49 0.35,-0.06q5.56,8.97 13.29,12.76q11.4,5.59 24.94,7.56q7.38,1.07 14.47,4.04q8.28,3.47 12.34,8.16q4.65,5.37 5.34,12.65q0.53,5.64 -1.9,13.07q-5.49,16.76 -19.32,28.18q-0.69,0.57 -0.37,-0.27q4.94,-13.29 6.79,-27.32q1.15,-8.64 -4.66,-13.45q-3.04,-2.51 -9.54,-4.89q-11.89,-4.34 -23.76,-8.75z" fill="#ffffff"/>
  <path id="svg_3" d="m121.06,69.19q8.08,6.24 7.21,17.54q-1.34,17.42 -13.46,30.83q-4.33,4.8 -7.36,7.31q-0.39,0.33 -0.26,-0.17q2.09,-7.74 4.31,-15.45q1.14,-3.96 1.67,-9.64q0.58,-6.25 -0.63,-9.64q-2.34,-6.5 -10.04,-9.47q-10.7,-4.13 -21.43,-8.16q-11.02,-4.14 -14.84,-7.15q-11.79,-9.28 -8.58,-26.69q0.1,-0.5 0.38,-0.08q7.77,11.6 20.33,16.36q2.11,0.8 13.45,3.31q5.98,1.32 13.44,3.41q9.2,2.58 15.81,7.69z" fill="#ffffff"/>
  <path id="svg_4" d="m147.55,239.09l10.5,0.16q2.51,0.04 3.3,2.27q0.84,2.36 -0.92,3.66q-1.02,0.75 -3.18,0.76q-37.05,0.15 -74.1,0.01q-2.64,-0.01 -3.88,-1.05q-2.24,-1.85 0.21,-4.71a1.47,1.41 13.5 0 1 0.82,-0.48q4.72,-0.97 9.52,-0.24q0.2,0.03 0.35,0q0.76,-0.18 -0.12,-0.5q-17.51,-6.3 -31.53,-18.11q-0.73,-0.61 0.22,-0.61q53.01,0 106.01,0q3.43,0 5.29,-2.74q1.63,-2.38 1.3,-5.29q-0.34,-3.12 -2.94,-4.83q-1.71,-1.14 -5.07,-1.16q-58.68,-0.38 -118.24,-0.23a2.03,1.79 -15.8 0 1 -1.61,-0.77l-8.8,-12.6q-0.43,-0.62 0.35,-0.63q50.78,-0.3 101.12,-0.31q4.35,0 6.28,-1.33q2.09,-1.43 2.85,-3.96q0.7,-2.34 -0.13,-4.63q-1.02,-2.82 -3.66,-4.16q-1.69,-0.86 -5.14,-0.87q-54.68,-0.13 -109.36,-0.24a0.8,0.78 76.7 0 1 -0.71,-0.45q-2.67,-5.55 -4.34,-11.5a0.39,0.38 82.3 0 1 0.36,-0.49q40.1,-0.11 80.2,-0.06q5.24,0.01 6.98,-4.11q1.4,-3.28 -0.33,-6.17q-1.31,-2.17 -3.85,-3.01q-1.41,-0.46 -4.66,-0.46q-40.5,0.04 -81.67,-0.07a0.81,0.81 83.8 0 1 -0.79,-0.64q-1.63,-7.68 -2.22,-16.17a0.57,0.57 87.7 0 1 0.57,-0.62q47.35,0 94.47,-0.25q55.09,-0.29 110.19,0.31a0.38,0.37 -81.7 0 1 0.35,0.48q-1.49,5.27 2.9,8.52q3.29,2.44 6.37,5.13q11.69,10.2 12.19,24.81q0.37,10.91 -6.81,20.69q-6.29,8.56 -17.86,13.98q-12.73,5.97 -25.58,6.58q-5.98,0.28 -9.71,4.01q-1.76,1.75 -1.78,1.77q-14.86,13.37 -33.74,20.12q-0.51,0.18 0.03,0.19zm71.25,-84.15a0.31,0.31 28.8 0 0 -0.51,0.15q-6.71,26.41 -22.56,48.31q-0.29,0.41 0.2,0.34q12.32,-1.74 21.86,-9.71q9.52,-7.96 9.34,-20.53q-0.17,-10.99 -8.33,-18.56z" fill="#ffffff"/>
 </g>
</svg>